<svg width="23" height="15" viewBox="0 0 23 15" fill="none" xmlns="http://www.w3.org/2000/svg">
<g id="eva:menu-2-outline">
<path id="Vector" d="M1.83333 8.70832C2.50068 8.70832 3.04167 8.16733 3.04167 7.49999C3.04167 6.83265 2.50068 6.29166 1.83333 6.29166C1.16599 6.29166 0.625 6.83265 0.625 7.49999C0.625 8.16733 1.16599 8.70832 1.83333 8.70832Z" fill="black"/>
<path id="Vector_2" d="M21.2392 6.29166H6.59421C5.9669 6.29166 5.45837 6.80019 5.45837 7.42749V7.57249C5.45837 8.19979 5.9669 8.70832 6.59421 8.70832H21.2392C21.8665 8.70832 22.375 8.19979 22.375 7.57249V7.42749C22.375 6.80019 21.8665 6.29166 21.2392 6.29166Z" fill="black"/>
<path id="Vector_3" d="M21.2392 12.3333H1.76083C1.13353 12.3333 0.625 12.8419 0.625 13.4692V13.6142C0.625 14.2415 1.13353 14.75 1.76083 14.75H21.2392C21.8665 14.75 22.375 14.2415 22.375 13.6142V13.4692C22.375 12.8419 21.8665 12.3333 21.2392 12.3333Z" fill="black"/>
<path id="Vector_4" d="M21.2392 0.25H1.76083C1.13353 0.25 0.625 0.75853 0.625 1.38583V1.53083C0.625 2.15814 1.13353 2.66667 1.76083 2.66667H21.2392C21.8665 2.66667 22.375 2.15814 22.375 1.53083V1.38583C22.375 0.75853 21.8665 0.25 21.2392 0.25Z" fill="black"/>
</g>
</svg>
